# xmcd
#
# Track frame offsets:
#	150
#	15425
#	29105
#	48805
#	61150
#	76040
#	96672
#	111865
#	127145
#	138020
#	158502
#
# Disc length: 2344 seconds
#
# Revision: 1
# Processed by: cddbd v1.5.1PL2 Copyright (c) Steve Scherf et al.
# Submitted via: EasyCDDAExtractor 6.2.0.3
#
DISCID=8509260b
DTITLE=Lonesome Wyatt And The Holy Spooks - Sabella
DYEAR=2001
DGENRE=Country
TTITLE0=Crows
TTITLE1=Macabre Holy Pleasure
TTITLE2=If You See Sabella
TTITLE3=Black Is The Color
TTITLE4=Rebecca
TTITLE5=A Horse Deceased
TTITLE6=The Ballerina's Twirl
TTITLE7=Jealous
TTITLE8=Covered In Straw
TTITLE9=Shelter
TTITLE10=A Lovely Coffin
EXTD=
EXTT0=
EXTT1=
EXTT2=
EXTT3=
EXTT4=
EXTT5=
EXTT6=
EXTT7=
EXTT8=
EXTT9=
EXTT10=
PLAYORDER=
